{"accessors":{"accessor_0":{"bufferView":"bufferView_0","byteOffset":0,"byteStride":0,"componentType":5126,"count":8673,"min":[-70.61346435546875,0.015853000804781914,-36.2993278503418],"max":[78.1108627319336,39.93086624145508,36.29341506958008],"type":"VEC3"},"accessor_1":{"bufferView":"bufferView_1","byteOffset":0,"byteStride":0,"componentType":5123,"count":52050,"min":[0],"max":[8672],"type":"SCALAR"}},"asset":{"generator":"obj2gltf","profile":{"api":"WebGL","version":"1.0"},"version":"1.0","premultipliedAlpha":true},"buffers":{"buffer":{"byteLength":208176,"uri":"data:application/octet-stream;base64,","type":"arraybuffer"}},"bufferViews":{"bufferView_0":{"buffer":"buffer","byteLength":104076,"byteOffset":0,"target":34962},"bufferView_1":{"buffer":"buffer","byteLength":104100,"byteOffset":104076,"target":34963}},"extensionsUsed":[],"images":{},"materials":{"Plastic_-_Glossy_(Grey)":{"technique":"technique0","values":{"ambient":[0,0,0,1],"diffuse":[0,0,0,1],"emission":[0.5,0.5,0.5,1],"specular":[0,0,0,1],"shininess":0,"transparency":1}}},"meshes":{"MeshBody1_1":{"name":"MeshBody1_1","primitives":[{"attributes":{"POSITION":"accessor_0"},"indices":"accessor_1","material":"Plastic_-_Glossy_(Grey)","mode":4}]}},"nodes":{"MeshBody1":{"name":"MeshBody1","meshes":["MeshBody1_1"],"children":[],"matrix":[1,0,0,0,0,1,0,0,0,0,1,0,0,0,0,1]}},"samplers":{},"scene":"scene","scenes":{"scene":{"nodes":["MeshBody1"]}},"textures":{},"animations":{},"cameras":{},"programs":{"program0":{"attributes":["a_position"],"fragmentShader":"fragmentShader0","vertexShader":"vertexShader0"}},"shaders":{"vertexShader0":{"type":35633,"uri":"data:text/plain;base64,"},"fragmentShader0":{"type":35632,"uri":"data:text/plain;base64,"}},"skins":{},"techniques":{"technique0":{"attributes":{"a_position":"position"},"parameters":{"modelViewMatrix":{"semantic":"MODELVIEW","type":35676},"projectionMatrix":{"semantic":"PROJECTION","type":35676},"ambient":{"type":35666},"diffuse":{"type":35666},"emission":{"type":35666},"specular":{"type":35666},"shininess":{"type":5126},"transparency":{"type":5126},"position":{"semantic":"POSITION","type":35665}},"program":"program0","states":{"enable":[2884,2929]},"uniforms":{"u_modelViewMatrix":"modelViewMatrix","u_projectionMatrix":"projectionMatrix","u_ambient":"ambient","u_diffuse":"diffuse","u_emission":"emission","u_specular":"specular","u_shininess":"shininess","u_transparency":"transparency"}}}}
